# xmcd CD database file
#
# Track frame offsets:
#	188
#	14213
#	27713
#	38963
#	52988
#	63713
#	77363
#	89513
#	105113
#	117638
#	134738
#	145763
#	158438
#	170100
#	186113
#	197963
#
# Disc length: 2784 seconds
#
# Revision: 3
# Processed by: cddbd v1.5.2PL0 Copyright (c) Steve Scherf et al.
# Submitted via: CDex 1.51
#
DISCID=e70ade10
DTITLE=Various Artist - COUNTRY ROADS
DYEAR=1991
DGENRE=Country
TTITLE0=Freddy Quinn - TAKE ME HOME COUNTRY ROADS
TTITLE1=Ronnie Rogers - DIANE (DO THE WRONG AGAIN WITH ME)
TTITLE2=Freddy Quinn - JAMBALAYA
TTITLE3=Barbara Perry - WHY CAN'T WOMAN HAVE A GOOD BEER DRINKIN' SONG
TTITLE4=George Kent - I'M IN A BAD MOOD TONIGHT
TTITLE5=Billy Grammer - THR HOUR OF SEPARATION
TTITLE6=David Price - I NEED A FRIEND
TTITLE7=Karen O'Donell - I KNOW WHAT IT'S ALL ABOUT MAMA
TTITLE8=Bobby Bare - THE YEAR THAT CLAYTON DELANEY DIED
TTITLE9=Bobby Bare - SYLVIA'S MOTHER
TTITLE10=Freddy Quinn - SOME BROKEN HEARTS NEVER MENT
TTITLE11=Bobby Bare - ROSALEE
TTITLE12=Dave Dudley - SIX DAYS ON THE ROAD
TTITLE13=Rick Pilgreen - IF I HAD A CHANGE
TTITLE14=Ferlin Husky - MONEY GREASES THE WHEELS
TTITLE15=Dave Dudley - MY SUNNY OVERGROWN COUNTRY TOWN
EXTD=YEAR: 1991
EXTT0=
EXTT1=
EXTT2=
EXTT3=
EXTT4=
EXTT5=
EXTT6=
EXTT7=
EXTT8=
EXTT9=
EXTT10=
EXTT11=
EXTT12=
EXTT13=
EXTT14=
EXTT15=
PLAYORDER=
